<svg xmlns="http://www.w3.org/2000/svg" xmlns:xlink="http://www.w3.org/1999/xlink" version="1.1" viewBox="0 0 1748 1240"><g id="v-3" class="joint-viewport" transform="matrix(1,0,0,1,0,0)"><g id="j_17" model-id="e5b2537c-068f-42f8-b1e7-3f6aff7c30af" class="joint-theme-default joint-cell joint-type-structurizr joint-type-structurizr-diagrammetadata joint-element" data-type="structurizr.diagramMetadata" transform="translate(20,1224)"><g id="v-181"><text class="structurizrDiagramMetadata structurizrMetadata" id="v-182" font-weight="normal" font-size="22px" text-anchor="start" fill="#777777" pointer-events="none" font-family="Open Sans"></text></g></g><g id="j_16" model-id="7a9ea936-b318-4088-966e-af084ebd1ab2" class="joint-theme-default joint-cell joint-type-structurizr joint-type-structurizr-diagramdescription joint-element" data-type="structurizr.diagramDescription" transform="translate(20,1195)"><g id="v-177"><text class="structurizrDiagramDescription structurizrMetadata" id="v-178" font-size="22px" y="0.8em" xml:space="preserve" font-weight="normal" text-anchor="start" fill="#777777" pointer-events="none" font-family="Open Sans" transform="matrix(1,0,0,1,0,0)"><tspan id="v-179" class="v-line" dy="0em" x="0">https://fundingcircle.github.io/fc4-framework/&nbsp;•&nbsp;last&nbsp;edited&nbsp;2019-09-18&nbsp;by&nbsp;Avi&nbsp;Flax&nbsp;(avi.flax@fundingcircle.com)&nbsp;|&nbsp;Our&nbsp;paid&nbsp;plans&nbsp;designed&nbsp;for&nbsp;teams&nbsp;start&nbsp;from&nbsp;$15&nbsp;per&nbsp;month&nbsp;-&nbsp;structurizr.com</tspan></text></g></g><g id="j_15" model-id="517e3918-02b4-46b3-b948-0868e4de36a4" class="joint-theme-default joint-cell joint-type-structurizr joint-type-structurizr-diagramtitle joint-element" data-type="structurizr.diagramTitle" transform="translate(20,1149)"><g id="v-173"><text class="structurizrDiagramTitle structurizrMetadata" id="v-174" font-size="36px" y="0.8em" xml:space="preserve" font-weight="bold" text-anchor="start" fill="#000000" pointer-events="none" font-family="Open Sans" transform="matrix(1,0,0,1,0,0)"><tspan id="v-175" class="v-line" dy="0em" x="0">Container&nbsp;diagram&nbsp;for&nbsp;fc4-tool</tspan></text></g></g><g id="j_6" model-id="f8e9ed68-da4c-46e4-b079-823becdee731" class="joint-theme-default joint-cell joint-type-structurizr joint-type-structurizr-boundary joint-element" data-type="structurizr.boundary" transform="translate(280,480)" style="cursor: move !important"><g id="v-35"><rect class="structurizrBoundary structurizrHighlightableElement" id="v-36" width="1240" height="367" rx="0" ry="0" fill="#ffffff" stroke="#444444" stroke-width="2" stroke-dasharray="20,20" pointer-events="none"></rect><text class="structurizrName" id="v-37" font-size="26px" y="326" xml:space="preserve" font-weight="bold" fill="#444444" x="10" text-anchor="start" pointer-events="visible" font-family="Open Sans" transform="matrix(1,0,0,1,10,0)"><tspan id="v-39" class="v-line" dy="0em" x="0">fc4-tool</tspan></text><text class="structurizrMetaData" id="v-38" font-size="21px" y="352" xml:space="preserve" fill="#444444" x="10" text-anchor="start" pointer-events="visible" font-family="Open Sans" font-weight="normal" transform="matrix(1,0,0,1,10,0)"><tspan id="v-40" class="v-line" dy="0em" x="0">[Software&nbsp;System]</tspan></text></g></g><g id="j_7" model-id="199d31b8-a615-4b72-a42c-0cf81c528ad9" class="joint-theme-default joint-cell joint-type-structurizr joint-type-structurizr-person joint-element" data-type="structurizr.person" transform="translate(725,50)" style="cursor: move !important"><g class="structurizrElement" id="v-44"><rect class="structurizrPersonBody structurizrHighlightableElement" x="0" y="140" width="350" height="210" rx="70" id="v-46" stroke="#2079c6" stroke-width="2" pointer-events="visiblePainted" fill="#2486dc"></rect><circle class="structurizrPersonHead structurizrHighlightableElement" cx="175" cy="77.77777777777777" r="77.77777777777777" id="v-45" stroke="#2079c6" stroke-width="2" pointer-events="visiblePainted" fill="#2486dc"></circle><line class="structurizrPersonRightArm" x1="70" y1="233.33333333333334" x2="70" y2="350" style="stroke-width:2px" id="v-52" stroke="#2079c6"></line><line class="structurizrPersonLeftArm" x1="280" y1="233.33333333333334" x2="280" y2="350" style="stroke-width:2px" id="v-53" stroke="#2079c6"></line><text class="structurizrName" id="v-47" font-size="36px" y="0.8em" xml:space="preserve" font-weight="bold" text-anchor="middle" pointer-events="visible" font-family="Open Sans" fill="#ffffff" transform="matrix(1,0,0,1,175,175)"><tspan id="v-54" class="v-line" dy="0em" x="0">Software&nbsp;Creator</tspan><tspan id="v-55" class="v-line" dy="1.2em" x="0">or&nbsp;Documentarian</tspan></text><text class="structurizrMetaData" id="v-48" font-size="21px" y="0.8em" xml:space="preserve" text-anchor="middle" font-family="Open Sans" fill="#ffffff" transform="matrix(1,0,0,1,175,260)"><tspan id="v-56" class="v-line" dy="0em" x="0">[Person]</tspan></text><text class="structurizrDescription" id="v-49" font-size="26px" y="0.8em" display="none" xml:space="preserve" text-anchor="middle" font-family="Open Sans" fill="#ffffff" transform="matrix(1,0,0,1,175,315)"><tspan id="v-57" class="v-line v-empty-line" dy="0em" x="0" style="fill-opacity: 0; stroke-opacity: 0;">-</tspan></text><text class="structurizrNavigation" id="v-50" font-weight="bold" text-anchor="middle" display="none" font-family="Open Sans" fill="#5ba4e5" font-size="26" transform="matrix(1,0,0,1,175,324.8)"></text><image class="structurizrIcon" id="v-51"></image></g></g><g id="j_8" model-id="30985d40-ee29-423b-bdca-ae2ce363915d" class="joint-theme-default joint-cell joint-type-structurizr joint-type-structurizr-box joint-element" data-type="structurizr.box" transform="translate(700,900)" style="cursor: move !important"><g class="structurizrElement" id="v-63"><rect class="structurizrBox structurizrHighlightableElement" id="v-64" rx="20" ry="20" stroke="#2079c6" stroke-width="2" pointer-events="visiblePainted" fill="#2486dc" width="400" height="250"></rect><text class="structurizrName" id="v-65" font-size="36" y="0.8em" xml:space="preserve" font-weight="bold" text-anchor="middle" pointer-events="visible" font-family="Open Sans" fill="#ffffff" transform="matrix(1,0,0,1,200,43.8)"><tspan id="v-70" class="v-line" dy="0em" x="0">Structurizr&nbsp;Express</tspan></text><text class="structurizrMetaData" id="v-66" font-size="21" y="0.8em" xml:space="preserve" text-anchor="middle" font-family="Open Sans" fill="#ffffff" transform="matrix(1,0,0,1,200,86.3)"><tspan id="v-71" class="v-line" dy="0em" x="0">[Software&nbsp;System]</tspan></text><text class="structurizrDescription" id="v-67" font-size="26" y="0.8em" xml:space="preserve" text-anchor="middle" font-family="Open Sans" fill="#ffffff" transform="matrix(1,0,0,1,200,141.3)"><tspan id="v-72" class="v-line" dy="0em" x="0">Web&nbsp;app&nbsp;that&nbsp;renders</tspan><tspan id="v-73" class="v-line" dy="1.2em" x="0">diagrams&nbsp;from&nbsp;YAML</tspan></text><text class="structurizrNavigation" id="v-68" font-weight="bold" text-anchor="middle" display="none" font-family="Open Sans" fill="#5ba4e5" font-size="26" transform="matrix(1,0,0,1,200,225)"></text><image class="structurizrIcon" id="v-69"></image></g></g><g id="j_9" model-id="d20babce-5c50-4732-992e-a5bdb27e5936" class="joint-theme-default joint-cell joint-type-structurizr joint-type-structurizr-box joint-element" data-type="structurizr.box" transform="translate(300,500)" style="cursor: move !important"><g class="structurizrElement" id="v-81"><rect class="structurizrBox structurizrHighlightableElement" id="v-82" rx="20" ry="20" stroke="#2079c6" stroke-width="2" pointer-events="visiblePainted" fill="#2486dc" width="400" height="250"></rect><text class="structurizrName" id="v-83" font-size="36" y="0.8em" xml:space="preserve" font-weight="bold" text-anchor="middle" pointer-events="visible" font-family="Open Sans" fill="#ffffff" transform="matrix(1,0,0,1,200,27.5)"><tspan id="v-88" class="v-line" dy="0em" x="0">Main&nbsp;Executable</tspan></text><text class="structurizrMetaData" id="v-84" font-size="21" y="0.8em" xml:space="preserve" text-anchor="middle" font-family="Open Sans" fill="#ffffff" transform="matrix(1,0,0,1,200,70)"><tspan id="v-89" class="v-line" dy="0em" x="0">[Container:&nbsp;Clojure/Java/JVM]</tspan></text><text class="structurizrDescription" id="v-85" font-size="26" y="0.8em" xml:space="preserve" text-anchor="middle" font-family="Open Sans" fill="#ffffff" transform="matrix(1,0,0,1,200,125)"><tspan id="v-90" class="v-line" dy="0em" x="0">Reformats&nbsp;YAML,&nbsp;snaps</tspan><tspan id="v-91" class="v-line" dy="1.2em" x="0">coordinates,&nbsp;orchestrates</tspan><tspan id="v-92" class="v-line" dy="1.2em" x="0">rendering,&nbsp;etc.</tspan></text><text class="structurizrNavigation" id="v-86" font-weight="bold" text-anchor="middle" display="none" font-family="Open Sans" fill="#5ba4e5" font-size="26" transform="matrix(1,0,0,1,200,225)"></text><image class="structurizrIcon" id="v-87"></image></g></g><g id="j_10" model-id="cfb6781e-7ab8-4c03-b81e-ce97d36aab66" class="joint-theme-default joint-cell joint-type-structurizr joint-type-structurizr-box joint-element" data-type="structurizr.box" transform="translate(1100,500)" style="cursor: move !important"><g class="structurizrElement" id="v-96"><rect class="structurizrBox structurizrHighlightableElement" id="v-97" rx="20" ry="20" stroke="#2079c6" stroke-width="2" pointer-events="visiblePainted" fill="#2486dc" width="400" height="250"></rect><text class="structurizrName" id="v-98" font-size="36" y="0.8em" xml:space="preserve" font-weight="bold" text-anchor="middle" pointer-events="visible" font-family="Open Sans" fill="#ffffff" transform="matrix(1,0,0,1,200,43.8)"><tspan id="v-103" class="v-line" dy="0em" x="0">Chromium</tspan></text><text class="structurizrMetaData" id="v-99" font-size="21" y="0.8em" xml:space="preserve" text-anchor="middle" font-family="Open Sans" fill="#ffffff" transform="matrix(1,0,0,1,200,86.3)"><tspan id="v-104" class="v-line" dy="0em" x="0">[Container]</tspan></text><text class="structurizrDescription" id="v-100" font-size="26" y="0.8em" xml:space="preserve" text-anchor="middle" font-family="Open Sans" fill="#ffffff" transform="matrix(1,0,0,1,200,141.3)"><tspan id="v-105" class="v-line" dy="0em" x="0">or&nbsp;Chrome;&nbsp;Web&nbsp;browser;</tspan><tspan id="v-106" class="v-line" dy="1.2em" x="0">runs&nbsp;in&nbsp;headless&nbsp;mode</tspan></text><text class="structurizrNavigation" id="v-101" font-weight="bold" text-anchor="middle" display="none" font-family="Open Sans" fill="#5ba4e5" font-size="26" transform="matrix(1,0,0,1,200,225)"></text><image class="structurizrIcon" id="v-102"></image></g></g><g id="j_11" model-id="b2504c80-93fa-4d9d-a44d-761c65be3b93" class="joint-theme-default joint-cell joint-type-structurizr joint-type-structurizr-relationship joint-link" data-type="structurizr.relationship"><path class="connection" stroke="#707070" id="v-123" stroke-width="2" fill="none" d="M 1175 750 1039 886"></path><path class="marker-source" fill="black" stroke="black" transform="translate(1175,750) scale(1,1) rotate(-225)"></path><path class="marker-target" fill="#707070" stroke="#707070" id="v-125" d="M 20 0 L 0 10 L 20 20 z" transform="translate(1017.928909298144,892.928955078125) scale(1,1) rotate(-44.99999999999999)"></path><path class="connection-wrap" id="v-124" fill="none" d="M 1175 750 1039 886"></path><title class="tooltip"></title><g class="labels"><g class="label" id="v-114" label-idx="0"  transform="translate(1107, 818)"><rect id="v-116" fill="#ffffff" rx="3" ry="3" stroke="#ffffff" stroke-width="20px" pointer-events="none" width="175.40625" height="62.59375" transform="matrix(1,0,0,1,-87.7,-31.3)"></rect><text id="v-115" font-size="24px" y="0.8em" xml:space="preserve" text-anchor="middle" pointer-events="none" fill="#707070" font-family="Open Sans" font-weight="bold" transform="matrix(1,0,0,1,0,-24)"><tspan id="v-117" class="v-line" dy="0em" x="0">loads&nbsp;and&nbsp;uses</tspan><tspan id="v-118" class="v-line" dy="1.2em" x="0">for&nbsp;rendering</tspan></text></g><g class="label" id="v-119" label-idx="1"  transform="translate(1107, 861.2)"><rect id="v-121" fill="#ffffff" rx="3" ry="3" pointer-events="none" width="0" height="0" transform="matrix(1,0,0,1,0,0)"></rect><text id="v-120" font-size="19px" y="0.8em" display="none" xml:space="preserve" text-anchor="middle" pointer-events="none" fill="#707070" font-family="Open Sans" font-weight="normal" transform="matrix(1,0,0,1,0,0)"><tspan id="v-122" class="v-line v-empty-line" dy="0em" x="0" style="fill-opacity: 0; stroke-opacity: 0;">-</tspan></text></g></g><g class="marker-vertices" display="none"></g><g class="marker-arrowheads" id="v-127" display="none"><g class="marker-arrowhead-group marker-arrowhead-group-source" id="v-111"><path class="marker-arrowhead" end="source" d="M 26 0 L 0 13 L 26 26 z"></path></g><g class="marker-arrowhead-group marker-arrowhead-group-target" id="v-112"><path class="marker-arrowhead" end="target" d="M 26 0 L 0 13 L 26 26 z"></path></g></g><g class="link-tools" id="v-126" display="none"><g class="link-tool" id="v-110" transform="translate(1146.7156982421875, 778.2843017578125) "><g class="tool-remove" event="remove"><circle r="11"></circle><path transform="scale(.8) translate(-16, -16)" d="M24.778,21.419 19.276,15.917 24.777,10.415 21.949,7.585 16.447,13.087 10.945,7.585 8.117,10.415 13.618,15.917 8.116,21.419 10.946,24.248 16.447,18.746 21.948,24.248z"></path><title>Remove link.</title></g><g class="tool-options" event="link:options"><circle r="11" transform="translate(25)"></circle><path fill="white" transform="scale(.55) translate(29, -16)" d="M31.229,17.736c0.064-0.571,0.104-1.148,0.104-1.736s-0.04-1.166-0.104-1.737l-4.377-1.557c-0.218-0.716-0.504-1.401-0.851-2.05l1.993-4.192c-0.725-0.91-1.549-1.734-2.458-2.459l-4.193,1.994c-0.647-0.347-1.334-0.632-2.049-0.849l-1.558-4.378C17.165,0.708,16.588,0.667,16,0.667s-1.166,0.041-1.737,0.105L12.707,5.15c-0.716,0.217-1.401,0.502-2.05,0.849L6.464,4.005C5.554,4.73,4.73,5.554,4.005,6.464l1.994,4.192c-0.347,0.648-0.632,1.334-0.849,2.05l-4.378,1.557C0.708,14.834,0.667,15.412,0.667,16s0.041,1.165,0.105,1.736l4.378,1.558c0.217,0.715,0.502,1.401,0.849,2.049l-1.994,4.193c0.725,0.909,1.549,1.733,2.459,2.458l4.192-1.993c0.648,0.347,1.334,0.633,2.05,0.851l1.557,4.377c0.571,0.064,1.148,0.104,1.737,0.104c0.588,0,1.165-0.04,1.736-0.104l1.558-4.377c0.715-0.218,1.399-0.504,2.049-0.851l4.193,1.993c0.909-0.725,1.733-1.549,2.458-2.458l-1.993-4.193c0.347-0.647,0.633-1.334,0.851-2.049L31.229,17.736zM16,20.871c-2.69,0-4.872-2.182-4.872-4.871c0-2.69,2.182-4.872,4.872-4.872c2.689,0,4.871,2.182,4.871,4.872C20.871,18.689,18.689,20.871,16,20.871z"></path><title>Link options.</title></g></g></g></g><g id="j_12" model-id="ebf79310-29f5-4c77-bcf5-a90628179126" class="joint-theme-default joint-cell joint-type-structurizr joint-type-structurizr-relationship joint-link" data-type="structurizr.relationship"><path class="connection" stroke="#707070" id="v-144" stroke-width="2" fill="none" d="M 700 625 1080 625"></path><path class="marker-source" fill="black" stroke="black" transform="translate(700,625) scale(1,1) rotate(0)"></path><path class="marker-target" fill="#707070" stroke="#707070" id="v-146" d="M 20 0 L 0 10 L 20 20 z" transform="translate(1100,635) scale(1,1) rotate(-180)"></path><path class="connection-wrap" id="v-145" fill="none" d="M 700 625 1080 625"></path><title class="tooltip"></title><g class="labels"><g class="label" id="v-135" label-idx="0"  transform="translate(890, 625)"><rect id="v-137" fill="#ffffff" rx="3" ry="3" stroke="#ffffff" stroke-width="20px" pointer-events="none" width="159.15625" height="62.59375" transform="matrix(1,0,0,1,-79.6,-31.3)"></rect><text id="v-136" font-size="24px" y="0.8em" xml:space="preserve" text-anchor="middle" pointer-events="none" fill="#707070" font-family="Open Sans" font-weight="bold" transform="matrix(1,0,0,1,0,-24)"><tspan id="v-138" class="v-line" dy="0em" x="0">launches&nbsp;and</tspan><tspan id="v-139" class="v-line" dy="1.2em" x="0">controls</tspan></text></g><g class="label" id="v-140" label-idx="1"  transform="translate(890, 668.2)"><rect id="v-142" fill="#ffffff" rx="3" ry="3" pointer-events="none" width="0" height="0" transform="matrix(1,0,0,1,0,0)"></rect><text id="v-141" font-size="19px" y="0.8em" display="none" xml:space="preserve" text-anchor="middle" pointer-events="none" fill="#707070" font-family="Open Sans" font-weight="normal" transform="matrix(1,0,0,1,0,0)"><tspan id="v-143" class="v-line v-empty-line" dy="0em" x="0" style="fill-opacity: 0; stroke-opacity: 0;">-</tspan></text></g></g><g class="marker-vertices" display="none"></g><g class="marker-arrowheads" id="v-148" display="none"><g class="marker-arrowhead-group marker-arrowhead-group-source" id="v-132"><path class="marker-arrowhead" end="source" d="M 26 0 L 0 13 L 26 26 z"></path></g><g class="marker-arrowhead-group marker-arrowhead-group-target" id="v-133"><path class="marker-arrowhead" end="target" d="M 26 0 L 0 13 L 26 26 z"></path></g></g><g class="link-tools" id="v-147" display="none"><g class="link-tool" id="v-131" transform="translate(740, 625) "><g class="tool-remove" event="remove"><circle r="11"></circle><path transform="scale(.8) translate(-16, -16)" d="M24.778,21.419 19.276,15.917 24.777,10.415 21.949,7.585 16.447,13.087 10.945,7.585 8.117,10.415 13.618,15.917 8.116,21.419 10.946,24.248 16.447,18.746 21.948,24.248z"></path><title>Remove link.</title></g><g class="tool-options" event="link:options"><circle r="11" transform="translate(25)"></circle><path fill="white" transform="scale(.55) translate(29, -16)" d="M31.229,17.736c0.064-0.571,0.104-1.148,0.104-1.736s-0.04-1.166-0.104-1.737l-4.377-1.557c-0.218-0.716-0.504-1.401-0.851-2.05l1.993-4.192c-0.725-0.91-1.549-1.734-2.458-2.459l-4.193,1.994c-0.647-0.347-1.334-0.632-2.049-0.849l-1.558-4.378C17.165,0.708,16.588,0.667,16,0.667s-1.166,0.041-1.737,0.105L12.707,5.15c-0.716,0.217-1.401,0.502-2.05,0.849L6.464,4.005C5.554,4.73,4.73,5.554,4.005,6.464l1.994,4.192c-0.347,0.648-0.632,1.334-0.849,2.05l-4.378,1.557C0.708,14.834,0.667,15.412,0.667,16s0.041,1.165,0.105,1.736l4.378,1.558c0.217,0.715,0.502,1.401,0.849,2.049l-1.994,4.193c0.725,0.909,1.549,1.733,2.459,2.458l4.192-1.993c0.648,0.347,1.334,0.633,2.05,0.851l1.557,4.377c0.571,0.064,1.148,0.104,1.737,0.104c0.588,0,1.165-0.04,1.736-0.104l1.558-4.377c0.715-0.218,1.399-0.504,2.049-0.851l4.193,1.993c0.909-0.725,1.733-1.549,2.458-2.458l-1.993-4.193c0.347-0.647,0.633-1.334,0.851-2.049L31.229,17.736zM16,20.871c-2.69,0-4.872-2.182-4.872-4.871c0-2.69,2.182-4.872,4.872-4.872c2.689,0,4.871,2.182,4.871,4.872C20.871,18.689,18.689,20.871,16,20.871z"></path><title>Link options.</title></g></g></g></g><g id="j_13" model-id="550f71ed-9331-4f40-a8dc-8c4036a5e261" class="joint-theme-default joint-cell joint-type-structurizr joint-type-structurizr-relationship joint-link" data-type="structurizr.relationship"><path class="connection" stroke="#707070" id="v-162" stroke-width="2" fill="none" d="M 725 400 639 486"></path><path class="marker-source" fill="black" stroke="black" transform="translate(725,400) scale(1,1) rotate(-225)"></path><path class="marker-target" fill="#707070" stroke="#707070" id="v-164" d="M 20 0 L 0 10 L 20 20 z" transform="translate(617.928909298144,492.9289245605469) scale(1,1) rotate(-44.99999999999999)"></path><path class="connection-wrap" id="v-163" fill="none" d="M 725 400 639 486"></path><title class="tooltip"></title><g class="labels"><g class="label" id="v-154" label-idx="0"  transform="translate(682, 443)"><rect id="v-156" fill="#ffffff" rx="3" ry="3" stroke="#ffffff" stroke-width="20px" pointer-events="none" width="92.53125" height="33.78125" transform="matrix(1,0,0,1,-46.3,-16.8)"></rect><text id="v-155" font-size="24px" y="0.8em" xml:space="preserve" text-anchor="middle" pointer-events="none" fill="#707070" font-family="Open Sans" font-weight="bold" transform="matrix(1,0,0,1,0,-9.5)"><tspan id="v-157" class="v-line" dy="0em" x="0">invokes</tspan></text></g><g class="label" id="v-158" label-idx="1"  transform="translate(682, 474.2)"><rect id="v-160" fill="#ffffff" rx="3" ry="3" pointer-events="none" width="0" height="0" transform="matrix(1,0,0,1,0,0)"></rect><text id="v-159" font-size="19px" y="0.8em" display="none" xml:space="preserve" text-anchor="middle" pointer-events="none" fill="#707070" font-family="Open Sans" font-weight="normal" transform="matrix(1,0,0,1,0,0)"><tspan id="v-161" class="v-line v-empty-line" dy="0em" x="0" style="fill-opacity: 0; stroke-opacity: 0;">-</tspan></text></g></g><g class="marker-vertices" display="none"></g><g class="marker-arrowheads" id="v-166" display="none"><g class="marker-arrowhead-group marker-arrowhead-group-source" id="v-151"><path class="marker-arrowhead" end="source" d="M 26 0 L 0 13 L 26 26 z"></path></g><g class="marker-arrowhead-group marker-arrowhead-group-target" id="v-152"><path class="marker-arrowhead" end="target" d="M 26 0 L 0 13 L 26 26 z"></path></g></g><g class="link-tools" id="v-165" display="none"><g class="link-tool" id="v-150" transform="translate(696.7156982421875, 428.2842712402344) "><g class="tool-remove" event="remove"><circle r="11"></circle><path transform="scale(.8) translate(-16, -16)" d="M24.778,21.419 19.276,15.917 24.777,10.415 21.949,7.585 16.447,13.087 10.945,7.585 8.117,10.415 13.618,15.917 8.116,21.419 10.946,24.248 16.447,18.746 21.948,24.248z"></path><title>Remove link.</title></g><g class="tool-options" event="link:options"><circle r="11" transform="translate(25)"></circle><path fill="white" transform="scale(.55) translate(29, -16)" d="M31.229,17.736c0.064-0.571,0.104-1.148,0.104-1.736s-0.04-1.166-0.104-1.737l-4.377-1.557c-0.218-0.716-0.504-1.401-0.851-2.05l1.993-4.192c-0.725-0.91-1.549-1.734-2.458-2.459l-4.193,1.994c-0.647-0.347-1.334-0.632-2.049-0.849l-1.558-4.378C17.165,0.708,16.588,0.667,16,0.667s-1.166,0.041-1.737,0.105L12.707,5.15c-0.716,0.217-1.401,0.502-2.05,0.849L6.464,4.005C5.554,4.73,4.73,5.554,4.005,6.464l1.994,4.192c-0.347,0.648-0.632,1.334-0.849,2.05l-4.378,1.557C0.708,14.834,0.667,15.412,0.667,16s0.041,1.165,0.105,1.736l4.378,1.558c0.217,0.715,0.502,1.401,0.849,2.049l-1.994,4.193c0.725,0.909,1.549,1.733,2.459,2.458l4.192-1.993c0.648,0.347,1.334,0.633,2.05,0.851l1.557,4.377c0.571,0.064,1.148,0.104,1.737,0.104c0.588,0,1.165-0.04,1.736-0.104l1.558-4.377c0.715-0.218,1.399-0.504,2.049-0.851l4.193,1.993c0.909-0.725,1.733-1.549,2.458-2.458l-1.993-4.193c0.347-0.647,0.633-1.334,0.851-2.049L31.229,17.736zM16,20.871c-2.69,0-4.872-2.182-4.872-4.871c0-2.69,2.182-4.872,4.872-4.872c2.689,0,4.871,2.182,4.871,4.872C20.871,18.689,18.689,20.871,16,20.871z"></path><title>Link options.</title></g></g></g></g><g id="j_14" model-id="7c846a83-6eed-455d-b0ae-c3e92e3ad425" class="joint-theme-default joint-cell joint-type-structurizr joint-type-structurizr-diagramwatermark joint-element" data-type="structurizr.diagramWatermark" transform="translate(873.5,640)"><g id="v-168"><text class="structurizrDiagramWatermark" id="v-169" y="0.8em" xml:space="preserve" font-family="Open Sans" font-weight="bolder" text-anchor="middle" pointer-events="none" fill="#999999" stroke="#777777" stroke-width="2px" opacity="0.02" transform="matrix(1,0,0,1,0,0)" font-size="291.3333333333333px"><tspan id="v-171" class="v-line" dy="0em" x="0">Structurizr</tspan></text></g></g></g><defs id="v-4"></defs></svg>